<?xml version="1.0" encoding="UTF-8"?>
<svg xmlns="http://www.w3.org/2000/svg" xmlns:xlink="http://www.w3.org/1999/xlink" 
width="40pt" height="40pt" viewBox="0 0 40 40" version="1.1">
<g id="surface1">
<path style=" stroke:none;fill-rule:nonzero;fill:rgb(255,255,255);
" d="M 39.996094 20 C 39.996094 8.953125 31.042969 0 20 0 C 8.953125 0 0 8.953125 0 20 C 0 29.980469 7.3125 38.253906 16.875 39.753906 L 16.875 25.78125 L 11.796875 25.78125 L 11.796875 20 L 16.875 20 L 16.875 15.59375 C 16.875 10.582031 19.859375 7.8125 24.425781 7.8125 C 26.617188 7.8125 28.902344 8.203125 28.902344 8.203125 L 28.902344 13.125 L 26.382812 13.125 C 23.898438 13.125 23.125 14.664062 23.125 16.246094 L 23.125 20 L 28.667969 20 L 27.78125 25.78125 L 23.125 25.78125 L 23.125 39.753906 C 32.683594 38.253906 39.996094 29.980469 39.996094 20 Z M 39.996094 20 "/>
</g>
</svg>
