<?xml version="1.0" encoding="UTF-8"?>
<svg xmlns="http://www.w3.org/2000/svg" xmlns:xlink="http://www.w3.org/1999/xlink" width="40pt" height="40pt" viewBox="0 0 40 40" version="1.1">
<g id="surface1">
<path style=" stroke:none;fill-rule:nonzero;fill:rgb(255,255,255);" d="M 20 0 C 14.566406 0 13.886719 0.0234375 11.753906 0.121094 C 9.625 0.21875 8.175781 0.554688 6.898438 1.050781 C 5.585938 1.558594 4.46875 2.246094 3.355469 3.355469 C 2.246094 4.46875 1.558594 5.582031 1.050781 6.898438 C 0.554688 8.175781 0.21875 9.625 0.121094 11.753906 C 0.0195312 13.886719 0 14.566406 0 20 C 0 25.433594 0.0234375 26.113281 0.121094 28.246094 C 0.21875 30.375 0.554688 31.824219 1.050781 33.101562 C 1.558594 34.414062 2.246094 35.53125 3.355469 36.644531 C 4.46875 37.753906 5.582031 38.441406 6.898438 38.949219 C 8.175781 39.441406 9.625 39.78125 11.753906 39.878906 C 13.886719 39.980469 14.566406 40 20 40 C 25.433594 40 26.113281 39.976562 28.246094 39.878906 C 30.375 39.78125 31.824219 39.441406 33.101562 38.949219 C 34.414062 38.441406 35.53125 37.753906 36.644531 36.644531 C 37.753906 35.53125 38.441406 34.417969 38.949219 33.101562 C 39.441406 31.824219 39.78125 30.375 39.878906 28.246094 C 39.980469 26.113281 40 25.433594 40 20 C 40 14.566406 39.976562 13.886719 39.878906 11.753906 C 39.78125 9.625 39.441406 8.171875 38.949219 6.898438 C 38.441406 5.585938 37.753906 4.46875 36.644531 3.355469 C 35.53125 2.246094 34.417969 1.558594 33.101562 1.050781 C 31.824219 0.554688 30.375 0.21875 28.246094 0.121094 C 26.113281 0.0195312 25.433594 0 20 0 Z M 20 3.601562 C 25.339844 3.601562 25.976562 3.625 28.082031 3.71875 C 30.035156 3.808594 31.089844 4.132812 31.796875 4.410156 C 32.730469 4.773438 33.394531 5.203125 34.097656 5.902344 C 34.796875 6.601562 35.230469 7.269531 35.589844 8.203125 C 35.863281 8.910156 36.191406 9.964844 36.28125 11.917969 C 36.375 14.027344 36.398438 14.660156 36.398438 20 C 36.398438 25.339844 36.371094 25.976562 36.273438 28.082031 C 36.171875 30.035156 35.847656 31.089844 35.570312 31.796875 C 35.199219 32.730469 34.773438 33.394531 34.074219 34.097656 C 33.375 34.796875 32.699219 35.230469 31.773438 35.589844 C 31.074219 35.863281 30 36.191406 28.046875 36.28125 C 25.925781 36.375 25.300781 36.398438 19.949219 36.398438 C 14.597656 36.398438 13.972656 36.371094 11.851562 36.273438 C 9.898438 36.171875 8.824219 35.847656 8.125 35.570312 C 7.175781 35.199219 6.523438 34.773438 5.828125 34.074219 C 5.125 33.375 4.675781 32.699219 4.328125 31.773438 C 4.050781 31.074219 3.726562 30 3.625 28.046875 C 3.550781 25.949219 3.523438 25.300781 3.523438 19.976562 C 3.523438 14.648438 3.550781 14 3.625 11.875 C 3.726562 9.921875 4.050781 8.851562 4.328125 8.148438 C 4.675781 7.199219 5.125 6.550781 5.828125 5.847656 C 6.523438 5.148438 7.175781 4.699219 8.125 4.351562 C 8.824219 4.074219 9.875 3.75 11.828125 3.648438 C 13.953125 3.574219 14.578125 3.550781 19.925781 3.550781 Z M 20 9.730469 C 14.324219 9.730469 9.730469 14.328125 9.730469 20 C 9.730469 25.675781 14.328125 30.269531 20 30.269531 C 25.675781 30.269531 30.269531 25.671875 30.269531 20 C 30.269531 14.324219 25.671875 9.730469 20 9.730469 Z M 20 26.667969 C 16.316406 26.667969 13.332031 23.683594 13.332031 20 C 13.332031 16.316406 16.316406 13.332031 20 13.332031 C 23.683594 13.332031 26.667969 16.316406 26.667969 20 C 26.667969 23.683594 23.683594 26.667969 20 26.667969 Z M 33.078125 9.324219 C 33.078125 10.648438 32 11.726562 30.675781 11.726562 C 29.351562 11.726562 28.277344 10.648438 28.277344 9.324219 C 28.277344 8 29.351562 6.925781 30.675781 6.925781 C 32 6.925781 33.078125 8 33.078125 9.324219 Z M 33.078125 9.324219 "/>
</g>
</svg>
