<?xml version="1.0" encoding="UTF-8"?>
<svg xmlns="http://www.w3.org/2000/svg" xmlns:xlink="http://www.w3.org/1999/xlink" width="40pt" height="40pt" viewBox="0 0 40 40" version="1.1">
<g id="surface1">
<path style=" stroke:none;fill-rule:nonzero;fill:rgb(255,255,255);" d="M 39.160156 10.339844 C 38.6875 8.652344 37.367188 7.332031 35.679688 6.863281 C 32.5625 6.027344 20.019531 6.027344 20.019531 6.027344 C 20.019531 6.027344 7.507812 6.011719 4.359375 6.863281 C 2.667969 7.332031 1.351562 8.652344 0.878906 10.339844 C 0.289062 13.53125 -0.00390625 16.773438 0.0078125 20.015625 C 0 23.25 0.289062 26.476562 0.878906 29.65625 C 1.351562 31.34375 2.667969 32.664062 4.359375 33.136719 C 7.472656 33.972656 20.019531 33.972656 20.019531 33.972656 C 20.019531 33.972656 32.527344 33.972656 35.679688 33.136719 C 37.367188 32.664062 38.6875 31.34375 39.160156 29.65625 C 39.734375 26.476562 40.011719 23.25 39.992188 20.015625 C 40.015625 16.773438 39.738281 13.535156 39.160156 10.339844 Z M 16.015625 26 L 16.015625 14.011719 L 26.453125 20.015625 Z M 16.015625 26 "/>
</g>
</svg>
